<?xml version="1.0" encoding="UTF-8" standalone="no"?>
<!DOCTYPE svg PUBLIC "-//W3C//DTD SVG 1.1//EN"
 "http://www.w3.org/Graphics/SVG/1.1/DTD/svg11.dtd">
<!-- Generated by graphviz version 2.38.0 (20140413.2041)
 -->
<!-- Title: %3 Pages: 1 -->
<svg width="172pt" height="224pt"
 viewBox="0.00 0.00 171.79 224.00" xmlns="http://www.w3.org/2000/svg" xmlns:xlink="http://www.w3.org/1999/xlink">
<g id="graph0" class="graph" transform="scale(1 1) rotate(0) translate(4 220)">
<title>%3</title>
<polygon fill="white" stroke="none" points="-4,4 -4,-220 167.785,-220 167.785,4 -4,4"/>
<!-- /CPMB/K1ICT1B -->
<g id="node1" class="node"><title>/CPMB/K1ICT1B</title>
<path fill="#e51b16" stroke="white" d="M129.393,-216C129.393,-216 34.3927,-216 34.3927,-216 28.3927,-216 22.3927,-210 22.3927,-204 22.3927,-204 22.3927,-192 22.3927,-192 22.3927,-186 28.3927,-180 34.3927,-180 34.3927,-180 129.393,-180 129.393,-180 135.393,-180 141.393,-186 141.393,-192 141.393,-192 141.393,-204 141.393,-204 141.393,-210 135.393,-216 129.393,-216"/>
<text text-anchor="middle" x="81.8927" y="-194.3" font-family="Times New Roman,serif" font-size="14.00">/CPMB/K1ICT1B</text>
</g>
<!-- /CPMB/K1MCT1B -->
<g id="node2" class="node"><title>/CPMB/K1MCT1B</title>
<ellipse fill="none" stroke="black" cx="81.8927" cy="-18" rx="81.7856" ry="18"/>
<text text-anchor="middle" x="81.8927" y="-14.3" font-family="Times New Roman,serif" font-size="14.00">/CPMB/K1MCT1B</text>
</g>
<!-- /CPMB/K1ICT1B&#45;&gt;/CPMB/K1MCT1B -->
<g id="edge1" class="edge"><title>/CPMB/K1ICT1B&#45;&gt;/CPMB/K1MCT1B</title>
<path fill="none" stroke="black" d="M81.8927,-179.933C81.8927,-148.966 81.8927,-83.2989 81.8927,-46.1292"/>
<polygon fill="black" stroke="black" points="85.3928,-46.0157 81.8927,-36.0157 78.3928,-46.0158 85.3928,-46.0157"/>
</g>
</g>
</svg>
