<?xml version="1.0" encoding="UTF-8" standalone="no"?>
<!DOCTYPE svg PUBLIC "-//W3C//DTD SVG 1.1//EN"
 "http://www.w3.org/Graphics/SVG/1.1/DTD/svg11.dtd">
<!-- Generated by graphviz version 2.38.0 (20140413.2041)
 -->
<!-- Title: %3 Pages: 1 -->
<svg width="914pt" height="884pt"
 viewBox="0.00 0.00 913.73 884.00" xmlns="http://www.w3.org/2000/svg" xmlns:xlink="http://www.w3.org/1999/xlink">
<g id="graph0" class="graph" transform="scale(1 1) rotate(0) translate(4 880)">
<title>%3</title>
<polygon fill="white" stroke="none" points="-4,4 -4,-880 909.73,-880 909.73,4 -4,4"/>
<!-- 0CRM_SRV_PROCESS_I -->
<g id="node1" class="node"><title>0CRM_SRV_PROCESS_I</title>
<ellipse fill="none" stroke="black" cx="112.44" cy="-438" rx="112.38" ry="18"/>
<text text-anchor="middle" x="112.44" y="-434.3" font-family="Times New Roman,serif" font-size="14.00">0CRM_SRV_PROCESS_I</text>
</g>
<!-- ZO00144 -->
<g id="node2" class="node"><title>ZO00144</title>
<path fill="#16e537" stroke="white" d="M214.94,-246C214.94,-246 169.94,-246 169.94,-246 163.94,-246 157.94,-240 157.94,-234 157.94,-234 157.94,-222 157.94,-222 157.94,-216 163.94,-210 169.94,-210 169.94,-210 214.94,-210 214.94,-210 220.94,-210 226.94,-216 226.94,-222 226.94,-222 226.94,-234 226.94,-234 226.94,-240 220.94,-246 214.94,-246"/>
<text text-anchor="middle" x="192.44" y="-224.3" font-family="Times New Roman,serif" font-size="14.00">ZO00144</text>
</g>
<!-- 0CRM_SRV_PROCESS_I&#45;&gt;ZO00144 -->
<g id="edge1" class="edge"><title>0CRM_SRV_PROCESS_I&#45;&gt;ZO00144</title>
<path fill="none" stroke="green" stroke-width="2" d="M118.987,-419.978C132.904,-383.793 165.52,-298.993 182.209,-255.6"/>
<polygon fill="green" stroke="green" stroke-width="2" points="185.48,-256.847 185.803,-246.257 178.946,-254.334 185.48,-256.847"/>
<text text-anchor="middle" x="172.94" y="-336.8" font-family="Times New Roman,serif" font-size="14.00">9,838</text>
<text text-anchor="middle" x="172.94" y="-321.8" font-family="Times New Roman,serif" font-size="14.00">1,406</text>
</g>
<!-- ZO00190 -->
<g id="node4" class="node"><title>ZO00190</title>
<ellipse fill="none" stroke="black" cx="358.44" cy="-18" rx="44.6926" ry="18"/>
<text text-anchor="middle" x="358.44" y="-14.3" font-family="Times New Roman,serif" font-size="14.00">ZO00190</text>
</g>
<!-- ZO00144&#45;&gt;ZO00190 -->
<g id="edge8" class="edge"><title>ZO00144&#45;&gt;ZO00190</title>
<path fill="none" stroke="green" stroke-width="2" d="M206.024,-209.978C235.425,-173.14 305.039,-85.9124 339.055,-43.2896"/>
<polygon fill="green" stroke="green" stroke-width="2" points="341.859,-45.3871 345.361,-35.3879 336.388,-41.0207 341.859,-45.3871"/>
<text text-anchor="middle" x="300.94" y="-126.8" font-family="Times New Roman,serif" font-size="14.00">5,157</text>
<text text-anchor="middle" x="300.94" y="-111.8" font-family="Times New Roman,serif" font-size="14.00">2,362</text>
</g>
<!-- ZO00143 -->
<g id="node3" class="node"><title>ZO00143</title>
<path fill="#16e550" stroke="white" d="M380.94,-246C380.94,-246 335.94,-246 335.94,-246 329.94,-246 323.94,-240 323.94,-234 323.94,-234 323.94,-222 323.94,-222 323.94,-216 329.94,-210 335.94,-210 335.94,-210 380.94,-210 380.94,-210 386.94,-210 392.94,-216 392.94,-222 392.94,-222 392.94,-234 392.94,-234 392.94,-240 386.94,-246 380.94,-246"/>
<text text-anchor="middle" x="358.44" y="-224.3" font-family="Times New Roman,serif" font-size="14.00">ZO00143</text>
</g>
<!-- ZO00143&#45;&gt;ZO00190 -->
<g id="edge2" class="edge"><title>ZO00143&#45;&gt;ZO00190</title>
<path fill="none" stroke="green" stroke-width="2" d="M358.44,-209.978C358.44,-174.022 358.44,-90.0617 358.44,-46.4275"/>
<polygon fill="green" stroke="green" stroke-width="2" points="361.94,-46.2567 358.44,-36.2567 354.94,-46.2567 361.94,-46.2567"/>
<text text-anchor="middle" x="377.44" y="-126.8" font-family="Times New Roman,serif" font-size="14.00">2,044</text>
<text text-anchor="middle" x="377.44" y="-111.8" font-family="Times New Roman,serif" font-size="14.00">34,248</text>
</g>
<!-- ZO00142 -->
<g id="node5" class="node"><title>ZO00142</title>
<path fill="#e57f16" stroke="white" d="M377.94,-666C377.94,-666 332.94,-666 332.94,-666 326.94,-666 320.94,-660 320.94,-654 320.94,-654 320.94,-642 320.94,-642 320.94,-636 326.94,-630 332.94,-630 332.94,-630 377.94,-630 377.94,-630 383.94,-630 389.94,-636 389.94,-642 389.94,-642 389.94,-654 389.94,-654 389.94,-660 383.94,-666 377.94,-666"/>
<text text-anchor="middle" x="355.44" y="-644.3" font-family="Times New Roman,serif" font-size="14.00">ZO00142</text>
</g>
<!-- ZO00153 -->
<g id="node6" class="node"><title>ZO00153</title>
<path fill="#e51b16" stroke="white" d="M548.94,-456C548.94,-456 503.94,-456 503.94,-456 497.94,-456 491.94,-450 491.94,-444 491.94,-444 491.94,-432 491.94,-432 491.94,-426 497.94,-420 503.94,-420 503.94,-420 548.94,-420 548.94,-420 554.94,-420 560.94,-426 560.94,-432 560.94,-432 560.94,-444 560.94,-444 560.94,-450 554.94,-456 548.94,-456"/>
<text text-anchor="middle" x="526.44" y="-434.3" font-family="Times New Roman,serif" font-size="14.00">ZO00153</text>
</g>
<!-- ZO00142&#45;&gt;ZO00153 -->
<g id="edge3" class="edge"><title>ZO00142&#45;&gt;ZO00153</title>
<path fill="none" stroke="green" stroke-width="2" d="M369.434,-629.978C399.495,-593.412 470.37,-507.202 505.687,-464.244"/>
<polygon fill="green" stroke="green" stroke-width="2" points="508.606,-466.204 512.253,-456.257 503.199,-461.759 508.606,-466.204"/>
<text text-anchor="middle" x="465.94" y="-546.8" font-family="Times New Roman,serif" font-size="14.00">9,480</text>
<text text-anchor="middle" x="465.94" y="-531.8" font-family="Times New Roman,serif" font-size="14.00">4,966</text>
</g>
<!-- ZO00156 -->
<g id="node7" class="node"><title>ZO00156</title>
<path fill="#16e52e" stroke="white" d="M548.94,-246C548.94,-246 503.94,-246 503.94,-246 497.94,-246 491.94,-240 491.94,-234 491.94,-234 491.94,-222 491.94,-222 491.94,-216 497.94,-210 503.94,-210 503.94,-210 548.94,-210 548.94,-210 554.94,-210 560.94,-216 560.94,-222 560.94,-222 560.94,-234 560.94,-234 560.94,-240 554.94,-246 548.94,-246"/>
<text text-anchor="middle" x="526.44" y="-224.3" font-family="Times New Roman,serif" font-size="14.00">ZO00156</text>
</g>
<!-- ZO00153&#45;&gt;ZO00156 -->
<g id="edge12" class="edge"><title>ZO00153&#45;&gt;ZO00156</title>
<path fill="none" stroke="green" stroke-width="2" d="M526.44,-419.978C526.44,-384.022 526.44,-300.062 526.44,-256.428"/>
<polygon fill="green" stroke="green" stroke-width="2" points="529.94,-256.257 526.44,-246.257 522.94,-256.257 529.94,-256.257"/>
<text text-anchor="middle" x="553.94" y="-336.8" font-family="Times New Roman,serif" font-size="14.00">2,413,103</text>
<text text-anchor="middle" x="553.94" y="-321.8" font-family="Times New Roman,serif" font-size="14.00">1,879,992</text>
</g>
<!-- ZO00156&#45;&gt;ZO00190 -->
<g id="edge4" class="edge"><title>ZO00156&#45;&gt;ZO00190</title>
<path fill="none" stroke="green" stroke-width="2" d="M512.692,-209.978C482.937,-173.14 412.485,-85.9124 378.059,-43.2896"/>
<polygon fill="green" stroke="green" stroke-width="2" points="380.683,-40.9681 371.676,-35.3879 375.237,-45.3665 380.683,-40.9681"/>
<text text-anchor="middle" x="474.94" y="-126.8" font-family="Times New Roman,serif" font-size="14.00">135,899</text>
<text text-anchor="middle" x="474.94" y="-111.8" font-family="Times New Roman,serif" font-size="14.00">204,085</text>
</g>
<!-- ZO00155 -->
<g id="node8" class="node"><title>ZO00155</title>
<path fill="#16e53c" stroke="white" d="M678.94,-456C678.94,-456 633.94,-456 633.94,-456 627.94,-456 621.94,-450 621.94,-444 621.94,-444 621.94,-432 621.94,-432 621.94,-426 627.94,-420 633.94,-420 633.94,-420 678.94,-420 678.94,-420 684.94,-420 690.94,-426 690.94,-432 690.94,-432 690.94,-444 690.94,-444 690.94,-450 684.94,-456 678.94,-456"/>
<text text-anchor="middle" x="656.44" y="-434.3" font-family="Times New Roman,serif" font-size="14.00">ZO00155</text>
</g>
<!-- ZO00155&#45;&gt;ZO00156 -->
<g id="edge5" class="edge"><title>ZO00155&#45;&gt;ZO00156</title>
<path fill="none" stroke="green" stroke-width="2" d="M646.58,-419.899C633.093,-396.644 607.991,-353.836 585.44,-318 571.903,-296.489 555.944,-272.492 544.039,-254.841"/>
<polygon fill="green" stroke="green" stroke-width="2" points="546.72,-252.557 538.217,-246.236 540.922,-256.48 546.72,-252.557"/>
<text text-anchor="middle" x="624.94" y="-336.8" font-family="Times New Roman,serif" font-size="14.00">350,931</text>
<text text-anchor="middle" x="624.94" y="-321.8" font-family="Times New Roman,serif" font-size="14.00">350,914</text>
</g>
<!-- 0CRM_SRV_PROCESS_H -->
<g id="node9" class="node"><title>0CRM_SRV_PROCESS_H</title>
<ellipse fill="none" stroke="black" cx="358.44" cy="-438" rx="115.88" ry="18"/>
<text text-anchor="middle" x="358.44" y="-434.3" font-family="Times New Roman,serif" font-size="14.00">0CRM_SRV_PROCESS_H</text>
</g>
<!-- 0CRM_SRV_PROCESS_H&#45;&gt;ZO00143 -->
<g id="edge6" class="edge"><title>0CRM_SRV_PROCESS_H&#45;&gt;ZO00143</title>
<path fill="none" stroke="green" stroke-width="2" d="M358.44,-419.978C358.44,-384.022 358.44,-300.062 358.44,-256.428"/>
<polygon fill="green" stroke="green" stroke-width="2" points="361.94,-256.257 358.44,-246.257 354.94,-256.257 361.94,-256.257"/>
<text text-anchor="middle" x="368.94" y="-336.8" font-family="Times New Roman,serif" font-size="14.00">135</text>
<text text-anchor="middle" x="368.94" y="-321.8" font-family="Times New Roman,serif" font-size="14.00">40</text>
</g>
<!-- ZO00141 -->
<g id="node10" class="node"><title>ZO00141</title>
<path fill="#16e54b" stroke="white" d="M548.94,-666C548.94,-666 503.94,-666 503.94,-666 497.94,-666 491.94,-660 491.94,-654 491.94,-654 491.94,-642 491.94,-642 491.94,-636 497.94,-630 503.94,-630 503.94,-630 548.94,-630 548.94,-630 554.94,-630 560.94,-636 560.94,-642 560.94,-642 560.94,-654 560.94,-654 560.94,-660 554.94,-666 548.94,-666"/>
<text text-anchor="middle" x="526.44" y="-644.3" font-family="Times New Roman,serif" font-size="14.00">ZO00141</text>
</g>
<!-- ZO00141&#45;&gt;ZO00153 -->
<g id="edge7" class="edge"><title>ZO00141&#45;&gt;ZO00153</title>
<path fill="none" stroke="green" stroke-width="2" d="M526.44,-629.978C526.44,-594.022 526.44,-510.062 526.44,-466.428"/>
<polygon fill="green" stroke="green" stroke-width="2" points="529.94,-466.257 526.44,-456.257 522.94,-466.257 529.94,-466.257"/>
<text text-anchor="middle" x="536.94" y="-546.8" font-family="Times New Roman,serif" font-size="14.00">210</text>
<text text-anchor="middle" x="536.94" y="-531.8" font-family="Times New Roman,serif" font-size="14.00">128</text>
</g>
<!-- ZO00147 -->
<g id="node11" class="node"><title>ZO00147</title>
<path fill="#18e516" stroke="white" d="M787.94,-666C787.94,-666 742.94,-666 742.94,-666 736.94,-666 730.94,-660 730.94,-654 730.94,-654 730.94,-642 730.94,-642 730.94,-636 736.94,-630 742.94,-630 742.94,-630 787.94,-630 787.94,-630 793.94,-630 799.94,-636 799.94,-642 799.94,-642 799.94,-654 799.94,-654 799.94,-660 793.94,-666 787.94,-666"/>
<text text-anchor="middle" x="765.44" y="-644.3" font-family="Times New Roman,serif" font-size="14.00">ZO00147</text>
</g>
<!-- ZO00147&#45;&gt;ZO00155 -->
<g id="edge9" class="edge"><title>ZO00147&#45;&gt;ZO00155</title>
<path fill="none" stroke="green" stroke-width="2" d="M756.52,-629.978C737.518,-593.717 692.932,-508.635 670.236,-465.327"/>
<polygon fill="green" stroke="green" stroke-width="2" points="673.225,-463.49 665.483,-456.257 667.025,-466.739 673.225,-463.49"/>
<text text-anchor="middle" x="732.94" y="-546.8" font-family="Times New Roman,serif" font-size="14.00">4,878</text>
<text text-anchor="middle" x="732.94" y="-531.8" font-family="Times New Roman,serif" font-size="14.00">2,442</text>
</g>
<!-- 0CRM_SRV_IBASE_ATTR -->
<g id="node12" class="node"><title>0CRM_SRV_IBASE_ATTR</title>
<ellipse fill="none" stroke="black" cx="787.44" cy="-858" rx="118.079" ry="18"/>
<text text-anchor="middle" x="787.44" y="-854.3" font-family="Times New Roman,serif" font-size="14.00">0CRM_SRV_IBASE_ATTR</text>
</g>
<!-- 0CRM_SRV_IBASE_ATTR&#45;&gt;ZO00147 -->
<g id="edge10" class="edge"><title>0CRM_SRV_IBASE_ATTR&#45;&gt;ZO00147</title>
<path fill="none" stroke="green" stroke-width="2" d="M785.64,-839.978C781.837,-804.022 772.956,-720.062 768.341,-676.428"/>
<polygon fill="green" stroke="green" stroke-width="2" points="771.798,-675.833 767.265,-666.257 764.837,-676.569 771.798,-675.833"/>
<text text-anchor="middle" x="792.94" y="-756.8" font-family="Times New Roman,serif" font-size="14.00">8,431</text>
<text text-anchor="middle" x="792.94" y="-741.8" font-family="Times New Roman,serif" font-size="14.00">2,889</text>
</g>
<!-- 0CRM_SRV_CONTRACT_H -->
<g id="node13" class="node"><title>0CRM_SRV_CONTRACT_H</title>
<ellipse fill="none" stroke="black" cx="526.44" cy="-858" rx="124.578" ry="18"/>
<text text-anchor="middle" x="526.44" y="-854.3" font-family="Times New Roman,serif" font-size="14.00">0CRM_SRV_CONTRACT_H</text>
</g>
<!-- 0CRM_SRV_CONTRACT_H&#45;&gt;ZO00141 -->
<g id="edge11" class="edge"><title>0CRM_SRV_CONTRACT_H&#45;&gt;ZO00141</title>
<path fill="none" stroke="green" stroke-width="2" d="M526.44,-839.978C526.44,-804.022 526.44,-720.062 526.44,-676.428"/>
<polygon fill="green" stroke="green" stroke-width="2" points="529.94,-676.257 526.44,-666.257 522.94,-676.257 529.94,-676.257"/>
<text text-anchor="middle" x="529.94" y="-756.8" font-family="Times New Roman,serif" font-size="14.00">0</text>
<text text-anchor="middle" x="529.94" y="-741.8" font-family="Times New Roman,serif" font-size="14.00">0</text>
</g>
<!-- 0CRM_SALES_CONTR_I -->
<g id="node14" class="node"><title>0CRM_SALES_CONTR_I</title>
<ellipse fill="none" stroke="black" cx="271.44" cy="-858" rx="112.38" ry="18"/>
<text text-anchor="middle" x="271.44" y="-854.3" font-family="Times New Roman,serif" font-size="14.00">0CRM_SALES_CONTR_I</text>
</g>
<!-- 0CRM_SALES_CONTR_I&#45;&gt;ZO00142 -->
<g id="edge13" class="edge"><title>0CRM_SALES_CONTR_I&#45;&gt;ZO00142</title>
<path fill="none" stroke="green" stroke-width="2" d="M278.314,-839.978C292.927,-803.793 327.174,-718.993 344.698,-675.6"/>
<polygon fill="green" stroke="green" stroke-width="2" points="347.972,-676.84 348.471,-666.257 341.481,-674.218 347.972,-676.84"/>
<text text-anchor="middle" x="334.94" y="-756.8" font-family="Times New Roman,serif" font-size="14.00">9,904</text>
<text text-anchor="middle" x="334.94" y="-741.8" font-family="Times New Roman,serif" font-size="14.00">5,112</text>
</g>
</g>
</svg>
